HIERARCHY
ROOT root
{
	OFFSET	0	13.1	24.9
	CHANNELS 6  Xposition Yposition Zposition Xrotation Yrotation Zrotation
	JOINT spine_1
	{
		OFFSET	0	9.99999	0
		CHANNELS 3  Xrotation Yrotation Zrotation
		JOINT spine_2
		{
			OFFSET	0	112	-10
			CHANNELS 3  Xrotation Yrotation Zrotation
			JOINT spine_3
			{
				OFFSET	0	206.5	19.3
				CHANNELS 3  Xrotation Yrotation Zrotation
				JOINT spine_4
				{
					OFFSET	0	110.4	14.6
					CHANNELS 3  Xrotation Yrotation Zrotation
					JOINT neck_1
					{
						OFFSET	0	71.8	-50.3
						CHANNELS 3  Xrotation Yrotation Zrotation
						JOINT neck_2
						{
							OFFSET	0	86.2	-25.8
							CHANNELS 3  Xrotation Yrotation Zrotation
							JOINT head_ee
							{
								OFFSET	0	179.8	-8.7
								CHANNELS 3  Xrotation Yrotation Zrotation
								End Site
								{
									OFFSET	1	0	0
								}
							}
						}
					}
					JOINT left_clavicle
					{
						OFFSET	-43.2	22.4	-70.8
						CHANNELS 3  Xrotation Yrotation Zrotation
						JOINT left_shoulder
						{
							OFFSET	-93.9	-5.79999	48.7
							CHANNELS 3  Xrotation Yrotation Zrotation
							JOINT left_elbow
							{
								OFFSET	-291.4	-30.8	15.2
								CHANNELS 3  Xrotation Yrotation Zrotation
								JOINT left_lowarm_twist
								{
									OFFSET	-110.7	-3.89999	13.6
									CHANNELS 3  Xrotation Yrotation Zrotation
									JOINT left_hand
									{
										OFFSET	-110.7	-3.89999	13.6
										CHANNELS 3  Xrotation Yrotation Zrotation
										JOINT left_ee
										{
											OFFSET	-80.8	-5.10001	12.1
											CHANNELS 3  Xrotation Yrotation Zrotation
											End Site
											{
												OFFSET	1	0	0
											}
										}
									}
								}
							}
						}
					}
					JOINT right_clavicle
					{
						OFFSET	43.2	22.4	-70.8
						CHANNELS 3  Xrotation Yrotation Zrotation
						JOINT right_shoulder
						{
							OFFSET	93.9	-5.79999	48.7
							CHANNELS 3  Xrotation Yrotation Zrotation
							JOINT right_elbow
							{
								OFFSET	291.4	-30.8	15.2
								CHANNELS 3  Xrotation Yrotation Zrotation
								JOINT right_lowarm_twist
								{
									OFFSET	110.7	-3.89999	13.6
									CHANNELS 3  Xrotation Yrotation Zrotation
									JOINT right_hand
									{
										OFFSET	110.7	-3.89999	13.6
										CHANNELS 3  Xrotation Yrotation Zrotation
										JOINT right_ee
										{
											OFFSET	80.8	-5.10001	12.1
											CHANNELS 3  Xrotation Yrotation Zrotation
											End Site
											{
												OFFSET	1	0	0
											}
										}
									}
								}
							}
						}
					}
				}
			}
		}
	}
	JOINT left_hip
	{
		OFFSET	-82.8	-127.5	0.300001
		CHANNELS 3  Xrotation Yrotation Zrotation
		JOINT left_knee
		{
			OFFSET	-28.2	-396.7	2.2
			CHANNELS 3  Xrotation Yrotation Zrotation
			JOINT left_ankle
			{
				OFFSET	-11.7	-411.3	35.4
				CHANNELS 3  Xrotation Yrotation Zrotation
				JOINT left_toes
				{
					OFFSET	0	-60	-88.6
					CHANNELS 3  Xrotation Yrotation Zrotation
					JOINT left_foot_ee
					{
						OFFSET	-22.5	-16.5	-42.2
						CHANNELS 3  Xrotation Yrotation Zrotation
						End Site
						{
							OFFSET	1	0	0
						}
					}
				}
			}
		}
	}
	JOINT right_hip
	{
		OFFSET	82.8	-127.5	0.300001
		CHANNELS 3  Xrotation Yrotation Zrotation
		JOINT right_knee
		{
			OFFSET	28.2	-396.7	2.2
			CHANNELS 3  Xrotation Yrotation Zrotation
			JOINT right_ankle
			{
				OFFSET	11.7	-411.3	35.4
				CHANNELS 3  Xrotation Yrotation Zrotation
				JOINT right_toes
				{
					OFFSET	0	-60	-88.6
					CHANNELS 3  Xrotation Yrotation Zrotation
					JOINT right_foot_ee
					{
						OFFSET	22.5	-16.5	-42.2
						CHANNELS 3  Xrotation Yrotation Zrotation
						End Site
						{
							OFFSET	1	0	0
						}
					}
				}
			}
		}
	}
}
MOTION
Frames: 16
Frame Time: 0.02
2768.81 689.787 -807.61 134.587 -81.8504 135.978 -1.90493 -0.2927 -2.02378 -1.90267 -0.163356 -2.0383 -1.89452 0.335667 -2.0171 -1.90019 0.0129595 -2.04479 -28.5422 13.2259 -2.88029 -30.3902 26.3378 5.34232 -0.0 0.0 -0.0 3.45507 7.34597 7.03967 2.22115 -30.0788 68.4561 3.41838 -59.4223 1.95108 -11.4281 -0.539842 1.35533 -0.176129 5.00654 0.937378 -0.0 0.0 -0.0 2.87563 11.7366 -4.62202 -17.9354 27.9171 -62.9627 0.583829 16.1306 -0.0827314 29.7832 -0.0730043 3.76136 7.35524 -13.2868 -67.9446 0.0 0.0 0.0 -17.0264 17.2 0.440367 -26.7646 0.154329 4.06721 39.0372 -6.39632 -4.87014 -38.4354 0.0 0.0 -0.0 0.0 -0.0 24.7239 14.3594 -1.18749 -7.67375 -0.239058 -1.15255 41.4031 -23.4889 5.25195 9.53511 -0.0 -0.0 0.0 0.0 0.0 
2788.72 692.336 -802.324 143.042 -81.8487 144.37 -1.74832 -0.0668279 -2.00985 -1.74607 0.0611733 -2.01003 -1.74634 0.541757 -1.93664 -1.7515 0.229166 -1.99787 -26.1235 14.5729 -1.22411 -28.0758 28.4784 7.14838 -0.0 0.0 -0.0 3.66957 6.39802 7.38634 0.843154 -30.182 68.8317 2.669 -52.8888 1.32766 -11.3893 -0.537561 1.35093 -0.0624081 2.30912 0.556138 -0.0 0.0 -0.0 2.81449 12.9851 -4.38366 -17.4725 28.7253 -62.7503 0.596872 16.4717 -0.0863924 30.1653 -0.0612163 3.80874 7.46037 -12.7153 -69.7178 0.0 0.0 0.0 -16.7293 17.7461 0.0553801 -26.5393 0.160987 4.03327 34.7945 -3.9154 -4.43903 -39.3859 0.0 0.0 -0.0 0.0 -0.0 24.1391 14.6495 -1.37652 -7.90168 -0.243785 -1.18721 42.2917 -22.816 5.31208 10.4153 -0.0 -0.0 0.0 0.0 0.0 
2814.04 694.904 -798.85 147.299 -81.2472 148.538 -1.71635 0.0497076 -1.93953 -1.71428 0.173001 -1.93244 -1.71857 0.630847 -1.83478 -1.72311 0.333217 -1.91135 -22.3142 16.1597 0.108156 -24.1895 31.0757 8.19407 -0.0 0.0 -0.0 3.69795 6.15382 7.42781 -1.56428 -30.1977 69.4806 2.22086 -47.7238 0.982484 -11.6584 -0.553474 1.38146 0.137626 0.551549 1.15003 -0.0 0.0 -0.0 2.79903 12.7725 -4.37017 -17.1091 29.9304 -62.6366 0.624373 17.1868 -0.0943547 30.2089 -0.0598508 3.81414 7.54989 -12.3387 -71.4259 0.0 0.0 0.0 -17.6221 18.0328 0.747778 -27.2988 0.138013 4.14757 31.4827 -2.4479 -4.08831 -40.0608 0.0 0.0 -0.0 0.0 -0.0 23.9578 14.5275 -1.75819 -8.37667 -0.253192 -1.25949 40.9927 -22.6935 5.19045 10.7589 -0.0 -0.0 0.0 0.0 0.0 
2839.09 698.411 -791.588 150.011 -80.6856 150.974 -1.69709 0.14786 -1.90969 -1.6951 0.269056 -1.89641 -1.70269 0.715019 -1.77698 -1.70684 0.425457 -1.86757 -19.664 17.3564 0.943478 -21.4121 32.9337 8.72324 -0.0 0.0 -0.0 3.82424 6.63069 7.67606 -4.35656 -29.9758 69.7846 1.92409 -43.6209 0.770049 -11.7812 -0.560779 1.39537 0.292248 -0.748613 1.63963 -0.0 0.0 -0.0 2.83703 13.0467 -4.42556 -16.126 31.1067 -62.4574 0.653394 17.9354 -0.103111 30.2793 -0.057637 3.82286 7.61137 -12.1033 -72.7156 0.0 0.0 0.0 -18.3592 18.223 1.13569 -28.0055 0.115277 4.25365 28.6899 -1.16682 -3.77806 -40.3113 0.0 0.0 -0.0 0.0 -0.0 22.8345 14.6724 -1.56498 -8.9497 -0.263742 -1.34679 40.195 -22.6541 5.11512 11.0154 -0.0 -0.0 0.0 0.0 0.0 
2860.1 702.021 -781.02 149.626 -80.9848 150.201 -1.80548 0.148118 -1.63127 -1.80403 0.251606 -1.61854 -1.81018 0.634364 -1.51018 -1.81315 0.387931 -1.59139 -19.1462 18.058 1.64415 -20.9283 33.904 9.54109 -0.0 0.0 -0.0 3.3526 6.16464 6.80011 -6.31783 -29.356 69.8524 1.78164 -41.4268 0.673748 -11.7691 -0.560058 1.394 0.380019 -1.44499 1.93673 -0.0 0.0 -0.0 2.98895 13.2952 -4.72319 -15.3953 32.2513 -62.2431 0.702618 19.1908 -0.118782 30.3296 -0.0560498 3.82909 7.62855 -11.8007 -72.9171 0.0 0.0 0.0 -18.6468 18.1699 0.517667 -28.5531 0.0967585 4.33565 26.1411 0.189035 -3.4831 -40.3527 0.0 0.0 -0.0 0.0 -0.0 22.9613 14.692 -1.8561 -13.1412 -0.314292 -1.98781 39.3349 -22.5852 5.03172 11.1687 -0.0 -0.0 0.0 0.0 0.0 
2890.38 708.45 -771.522 146.501 -79.9787 146.425 -2.01315 0.210992 -1.47087 -2.012 0.30415 -1.45447 -2.019 0.650668 -1.33591 -2.02123 0.431542 -1.42189 -17.5922 18.7441 2.58661 -19.1976 34.6214 10.1527 -0.0 0.0 -0.0 2.74297 6.69447 5.72565 -8.27799 -29.5987 70.707 1.56798 -37.8348 0.537401 -11.6598 -0.553553 1.38162 0.680652 -2.00486 3.72197 -0.0 0.0 -0.0 3.14413 12.3229 -5.13368 -13.8938 32.5679 -62.5929 0.728669 19.8476 -0.127487 30.3598 -0.0550954 3.83282 7.61165 -11.7177 -72.4422 0.0 0.0 0.0 -17.2649 17.8651 0.206546 -30.4698 0.0257844 4.62123 24.371 1.0999 -3.27312 -40.1113 0.0 0.0 -0.0 0.0 -0.0 20.1348 14.6574 -1.94704 -15.7692 -0.322026 -2.39091 40.4792 -22.1252 5.12691 11.3299 -0.0 -0.0 0.0 0.0 0.0 
2910.51 716.012 -766.918 149.199 -79.0206 148.451 -2.21247 0.261872 -1.21224 -2.21171 0.338474 -1.19313 -2.21836 0.623737 -1.07196 -2.21969 0.446625 -1.157 -18.5273 19.4634 1.6435 -20.5511 36.5675 10.0732 -0.0 0.0 -0.0 2.57019 7.83686 5.48614 -9.18445 -29.196 71.463 1.18198 -30.3486 0.320577 -12.5513 -0.607294 1.48223 0.635121 -1.40833 3.66356 -0.0 0.0 -0.0 3.51292 13.1446 -5.8396 -13.3348 33.3998 -62.1671 0.695898 19.0205 -0.116583 29.1175 -0.0927874 3.67862 7.5802 -11.137 -71.2944 0.0 0.0 0.0 -15.8942 16.9361 0.387724 -32.113 -0.0426521 4.86409 25.4301 1.32444 -3.39477 -40.1238 0.0 0.0 -0.0 0.0 -0.0 18.6627 14.6499 -2.00215 -15.6247 -0.322081 -2.36873 38.3653 -22.8313 4.94471 10.2014 -0.0 -0.0 0.0 0.0 0.0 
2922.4 712.552 -759.078 148.477 -78.8838 147.586 -2.23547 0.280333 -1.01251 -2.23497 0.344191 -0.992626 -2.24072 0.579886 -0.876082 -2.24153 0.434254 -0.956662 -17.3371 19.8694 1.57468 -19.235 37.304 9.73868 -0.0 0.0 -0.0 2.11742 8.46628 4.72709 -9.91031 -29.3595 71.979 1.00719 -26.5154 0.23731 -12.8604 -0.626296 1.51693 0.719752 -1.14786 4.33972 -0.0 0.0 -0.0 3.57494 13.9917 -5.89957 -9.95593 34.3256 -61.6387 0.707189 19.3064 -0.120289 28.4293 -0.112224 3.59286 7.57867 -11.0087 -71.1696 0.0 0.0 0.0 -15.9329 16.1745 0.277082 -33.2068 -0.0920603 5.02464 25.9752 1.76197 -3.45494 -39.6553 0.0 0.0 -0.0 0.0 -0.0 17.7795 14.6741 -2.35012 -17.319 -0.31792 -2.62864 37.359 -22.922 4.84769 9.85408 -0.0 -0.0 0.0 0.0 0.0 
2941.23 712.537 -749.957 149.845 -77.8587 149.396 -2.25419 0.312568 -0.874625 -2.25384 0.367587 -0.852965 -2.25924 0.5681 -0.734806 -2.25971 0.444926 -0.8153 -19.5033 20.0896 2.28688 -21.8356 37.4989 11.4083 -0.0 0.0 -0.0 1.64266 9.55698 3.97954 -10.1251 -29.3665 72.8262 0.844544 -22.7024 0.169545 -12.9486 -0.631751 1.52681 0.750735 -0.584246 4.78013 -0.0 0.0 -0.0 3.68377 13.9459 -6.1335 -7.12268 35.1455 -61.4846 0.762943 20.7035 -0.139364 28.1266 -0.120447 3.55507 7.64872 -11.0407 -72.8321 0.0 0.0 0.0 -15.8742 13.672 -0.383848 -35.8873 -0.226063 5.41398 23.3958 3.67856 -3.14731 -40.1201 0.0 0.0 -0.0 0.0 -0.0 16.9379 14.2431 -3.4167 -18.6473 -0.309284 -2.83226 39.1797 -21.8418 4.99699 9.37975 -0.0 -0.0 0.0 0.0 0.0 
2959.31 716.339 -744.495 149.514 -77.7311 148.434 -2.22315 0.400166 -0.36937 -2.22317 0.422859 -0.343157 -2.22586 0.494753 -0.227564 -2.22564 0.452604 -0.302846 -18.7071 20.3143 1.85639 -20.9796 38.101 10.8207 -0.0 0.0 -0.0 1.28551 9.82117 3.38348 -11.2948 -29.1338 72.5338 0.737036 -20.0574 0.130342 -13.3558 -0.65714 1.57232 0.784973 -0.209751 5.16378 -0.0 0.0 -0.0 3.88615 14.7417 -6.49603 -5.39635 35.6612 -61.6418 0.735016 20.0068 -0.12965 27.481 -0.137316 3.47433 7.55554 -10.7884 -70.5103 0.0 0.0 0.0 -14.9946 13.2796 -0.428275 -37.7818 -0.33171 5.68523 26.4306 2.43652 -3.50354 -39.2411 0.0 0.0 -0.0 0.0 -0.0 15.7054 14.4568 -3.39368 -19.7068 -0.299012 -2.9945 36.7768 -22.8496 4.7873 8.97501 -0.0 -0.0 0.0 0.0 0.0 
2970.91 717.374 -737.098 148.42 -76.8243 147.768 -2.42264 0.365272 -0.12785 -2.42271 0.372668 -0.104347 -2.4235 0.386931 -0.00733413 -2.42329 0.380917 -0.0683515 -19.0927 20.0627 1.88987 -21.3708 37.6237 10.87 -0.0 0.0 -0.0 0.937821 10.3314 2.83167 -12.0569 -28.9075 72.5012 0.657811 -18.0488 0.104475 -13.5124 -0.666986 1.58977 0.801983 0.281667 5.47913 -0.0 0.0 -0.0 4.0106 15.0713 -6.73299 -3.69013 36.1588 -61.2162 0.796007 21.5201 -0.151274 27.0068 -0.149126 3.4149 7.55391 -10.6863 -70.4051 0.0 0.0 0.0 -14.4133 10.4423 -0.786482 -37.75 -0.329864 5.68071 24.9801 3.69244 -3.33285 -40.0619 0.0 0.0 -0.0 0.0 -0.0 15.4577 14.2083 -4.49367 -21.9466 -0.267433 -3.33671 39.1031 -22.0563 4.9953 9.4105 -0.0 -0.0 0.0 0.0 0.0 
2979.63 722.846 -730.1 148.583 -76.7726 147.996 -2.1903 0.380598 0.171724 -2.19036 0.368899 0.195595 -2.18909 0.309054 0.280766 -2.18903 0.349517 0.228433 -20.779 19.9941 2.19152 -23.3542 37.4243 11.8168 -0.0 0.0 -0.0 0.617495 10.9896 2.34971 -12.9312 -28.7183 72.091 0.582059 -16.0843 0.0822403 -13.5645 -0.670277 1.59558 0.827309 0.447963 5.71688 -0.0 0.0 -0.0 4.93263 14.7506 -8.71978 -1.13053 36.9188 -60.8243 0.755471 20.5177 -0.136734 27.1754 -0.144984 3.43604 7.52032 -10.6757 -69.6951 0.0 0.0 0.0 -11.6055 9.58567 -1.91694 -38.6933 -0.385734 5.81449 23.5638 3.45831 -3.16788 -40.2348 0.0 0.0 -0.0 0.0 -0.0 13.8006 14.2897 -4.92363 -20.8501 -0.284564 -3.16933 39.4745 -20.5046 4.99149 8.58259 -0.0 -0.0 0.0 0.0 0.0 
2986.12 725.571 -723.592 150.737 -76.9038 150.14 -1.96932 0.326953 0.428848 -1.96927 0.299002 0.448783 -1.96677 0.180677 0.508098 -1.96704 0.258653 0.473188 -21.983 19.8057 1.96252 -24.7639 37.2067 12.0127 -0.0 0.0 -0.0 0.388372 10.9286 1.95373 -14.7565 -28.849 72.0652 0.527332 -14.6401 0.0677409 -13.8066 -0.685619 1.62249 0.948295 1.26191 6.85879 -0.0 0.0 -0.0 5.04157 15.5772 -8.88964 1.01653 37.3152 -60.7671 0.837361 22.5287 -0.166782 27.1717 -0.145074 3.43558 7.51363 -10.5933 -69.5041 0.0 0.0 0.0 -10.7755 8.44815 -1.82599 -37.3854 -0.308863 5.62876 28.2158 5.18716 -3.69508 -39.1198 0.0 0.0 -0.0 0.0 -0.0 13.7202 14.1402 -5.3013 -20.603 -0.287983 -3.13157 38.9114 -21.9239 4.97345 8.32469 -0.0 -0.0 0.0 0.0 0.0 
3001.23 729.643 -718.825 154.577 -76.1361 154.354 -1.93788 0.388827 0.600311 -1.93774 0.349841 0.623836 -1.93363 0.187749 0.69015 -1.93418 0.294386 0.65184 -22.2978 19.502 0.869155 -25.1435 37.1265 10.9931 -0.0 0.0 -0.0 0.123963 12.1479 1.64244 -16.1317 -28.2752 72.1692 0.513865 -14.2817 0.0643779 -13.7006 -0.678885 1.61071 0.969778 0.728091 6.78681 -0.0 0.0 -0.0 5.35622 15.7073 -9.55283 2.37257 37.6174 -60.3613 0.862612 23.1374 -0.176581 26.9688 -0.150051 3.41013 7.52142 -10.4393 -69.5606 0.0 0.0 0.0 -8.25764 7.2078 -1.9482 -38.1717 -0.354571 5.74063 28.2579 4.70411 -3.70046 -39.403 0.0 0.0 -0.0 0.0 -0.0 13.6672 14.5102 -6.56994 -20.802 -0.285243 -3.16197 37.671 -22.4916 4.86735 7.95745 -0.0 -0.0 0.0 0.0 0.0 
3012.14 731.226 -715.429 154.097 -75.9147 153.812 -2.04746 0.396947 0.720982 -2.04724 0.350265 0.744778 -2.04226 0.157239 0.807868 -2.04306 0.28285 0.7729 -22.2639 19.5483 1.82668 -25.0244 36.7815 11.8409 -0.0 0.0 -0.0 -0.000551741 12.921 1.52403 -17.3684 -28.0591 72.1973 0.459583 -12.8258 0.0516555 -13.9423 -0.694268 1.63755 0.934606 1.35567 6.80492 -0.0 0.0 -0.0 5.55424 15.9134 -9.96181 4.09582 37.9559 -60.0526 0.911565 24.3018 -0.196274 27.0245 -0.148693 3.41713 7.51265 -10.401 -69.3573 0.0 0.0 0.0 -6.16576 6.15468 -2.35644 -37.6192 -0.322291 5.66208 29.3891 4.86236 -3.82344 -38.9165 0.0 0.0 -0.0 0.0 -0.0 13.4275 14.3256 -6.87305 -21.4728 -0.275229 -3.26442 36.8556 -23.0071 4.79939 7.76596 -0.0 -0.0 0.0 0.0 0.0 
3024.77 738.474 -713.135 154.477 -75.1694 154.074 -2.06847 0.425303 0.842862 -2.06815 0.37081 0.868215 -2.06195 0.146617 0.932626 -2.06305 0.292062 0.897771 -22.3251 19.4766 1.62536 -25.0927 36.7363 11.6437 -0.0 0.0 -0.0 -0.0593092 14.3618 1.59557 -18.719 -28.2305 71.6441 0.477642 -13.3121 0.055739 -14.2074 -0.711271 1.66691 0.948345 1.53429 6.96915 -0.0 0.0 -0.0 5.77991 16.1737 -10.427 5.36016 37.659 -59.7443 0.962246 25.4852 -0.217609 27.703 -0.131617 3.50211 7.49772 -10.3097 -68.999 0.0 0.0 0.0 -4.58262 5.38073 -2.49793 -37.1648 -0.296319 5.59727 29.6686 4.88364 -3.8535 -39.235 0.0 0.0 -0.0 0.0 -0.0 12.9908 14.3978 -7.16237 -21.8984 -0.268254 -3.32935 34.5243 -23.6975 4.57608 7.12788 -0.0 -0.0 0.0 0.0 0.0 
